<?xml version="1.0" standalone="no"?>
<!DOCTYPE svg PUBLIC "-//W3C//DTD SVG 20010904//EN"
 "http://www.w3.org/TR/2001/REC-SVG-20010904/DTD/svg10.dtd">
<svg version="1.0" xmlns="http://www.w3.org/2000/svg"
 width="600.000000pt" height="600.000000pt" viewBox="0 0 600.000000 600.000000"
 preserveAspectRatio="xMidYMid meet">

<g transform="translate(0.000000,600.000000) scale(0.100000,-0.100000)"
fill="red" stroke="none">
<path d="M2294 5580 c-376 -21 -697 -90 -928 -198 -249 -117 -436 -311 -527
-545 -16 -44 -53 -171 -80 -284 -28 -113 -53 -211 -56 -219 -4 -12 165 -14
1150 -14 636 0 1158 -4 1161 -8 4 -6 -53 -249 -105 -444 l-10 -38 -949 0 -950
0 -5 -22 c-2 -13 -27 -114 -55 -225 -27 -111 -50 -209 -50 -218 0 -13 102 -15
945 -15 520 0 945 -3 945 -7 -1 -5 -27 -111 -58 -238 l-57 -230 -950 -3 -950
-2 -58 -233 c-32 -127 -57 -235 -57 -240 0 -4 425 -6 945 -5 834 3 945 1 945
-12 0 -8 -25 -117 -56 -242 l-56 -228 -1160 -2 -1160 -3 -45 -175 c-40 -156
-45 -188 -46 -290 -1 -132 15 -199 69 -297 122 -219 377 -366 784 -451 218
-46 251 -47 1665 -47 1470 0 1400 -3 1682 61 530 118 878 384 1002 764 11 36
120 468 241 960 121 492 254 1030 295 1195 204 824 217 879 222 975 24 420
-298 765 -863 924 -223 63 -145 59 -1469 61 -665 2 -1274 -1 -1351 -5z"/>
</g>
</svg>
